HIERARCHY
ROOT Hips
{
  OFFSET 52.6349 56.3601 -13.2573
  CHANNELS 6 Xposition Yposition Zposition Zrotation Xrotation Yrotation
  JOINT spine
  {
    OFFSET 0 7.96568 0.458067
    CHANNELS 3 Zrotation Xrotation Yrotation
    JOINT spine1
    {
      OFFSET 0 10.2431 0
      CHANNELS 3 Zrotation Xrotation Yrotation
      JOINT spine2
      {
        OFFSET 0 9.81475 0
        CHANNELS 3 Zrotation Xrotation Yrotation
        JOINT Neck
        {
          OFFSET 0 25.1986 1.20138
          CHANNELS 3 Zrotation Xrotation Yrotation
          JOINT Head
          {
            OFFSET 0 7.61315 0
            CHANNELS 3 Zrotation Xrotation Yrotation
            End Site
            {
              OFFSET 0 18.4281 -6.07733
            }
          }
        }
        JOINT RightShoulder
        {
          OFFSET -4.1327 10.5992 -0.575451
          CHANNELS 3 Zrotation Xrotation Yrotation
          JOINT RightArm
          {
            OFFSET 0 13.9018 0
            CHANNELS 3 Zrotation Xrotation Yrotation
            JOINT RightArmRoll
            {
              OFFSET 0 7.01789 0
              CHANNELS 3 Zrotation Xrotation Yrotation
              JOINT RightForeArm
              {
                OFFSET 0 20.4406 0
                CHANNELS 3 Zrotation Xrotation Yrotation
                JOINT RightForeArmRoll
                {
                  OFFSET 0 7.87515 0
                  CHANNELS 3 Zrotation Xrotation Yrotation
                  JOINT RightHand
                  {
                    OFFSET 0 15.8037 0
                    CHANNELS 3 Zrotation Xrotation Yrotation
                    End Site
                    {
                      OFFSET 0 0 0
                    }
                  }
                }
              }
            }
          }
        }
        JOINT LeftShoulder
        {
          OFFSET 4.1327 10.5992 -0.575451
          CHANNELS 3 Zrotation Xrotation Yrotation
          JOINT LeftArm
          {
            OFFSET 0 13.9018 0
            CHANNELS 3 Zrotation Xrotation Yrotation
            JOINT LeftArmRoll
            {
              OFFSET 0 7.01789 0
              CHANNELS 3 Zrotation Xrotation Yrotation
              JOINT LeftForeArm
              {
                OFFSET 0 20.4406 0
                CHANNELS 3 Zrotation Xrotation Yrotation
                JOINT LeftForeArmRoll
                {
                  OFFSET 0 7.87515 0
                  CHANNELS 3 Zrotation Xrotation Yrotation
                  JOINT LeftHand
                  {
                    OFFSET 0 15.8037 0
                    CHANNELS 3 Zrotation Xrotation Yrotation
                    End Site
                    {
                      OFFSET 0 0 0
                    }
                  }
                }
              }
            }
          }
        }
      }
    }
  }
  JOINT RightUpLeg
  {
    OFFSET -7.06048 -1.2947 -1.0861
    CHANNELS 3 Zrotation Xrotation Yrotation
    JOINT RightUpLegRoll
    {
      OFFSET 0 18.5308 0
      CHANNELS 3 Zrotation Xrotation Yrotation
      JOINT RightLeg
      {
        OFFSET 0 -22.9476 0
        CHANNELS 3 Zrotation Xrotation Yrotation
        JOINT RightLegRoll
        {
          OFFSET 0 23.0226 0
          CHANNELS 3 Zrotation Xrotation Yrotation
          JOINT RightFoot
          {
            OFFSET 0 19.1625 0
            CHANNELS 3 Zrotation Xrotation Yrotation
            JOINT RightToeBase
            {
              OFFSET 0 16.0188 0
              CHANNELS 3 Zrotation Xrotation Yrotation
              End Site
              {
                OFFSET 0.00678979 7.75781 -0.894207
              }
            }
          }
        }
      }
    }
  }
  JOINT LeftUpLeg
  {
    OFFSET 7.06048 -1.2947 -1.0861
    CHANNELS 3 Zrotation Xrotation Yrotation
    JOINT LeftUpLegRoll
    {
      OFFSET 0 18.5309 0
      CHANNELS 3 Zrotation Xrotation Yrotation
      JOINT LeftLeg
      {
        OFFSET 0 22.9475 0
        CHANNELS 3 Zrotation Xrotation Yrotation
        JOINT LeftLegRoll
        {
          OFFSET 0 23.2355 0
          CHANNELS 3 Zrotation Xrotation Yrotation
          JOINT LeftFoot
          {
            OFFSET 0 18.9496 0
            CHANNELS 3 Zrotation Xrotation Yrotation
            JOINT LeftToeBase
            {
              OFFSET 0 16.0188 0
              CHANNELS 3 Zrotation Xrotation Yrotation
              End Site
              {
                OFFSET -0.0304289 7.75781 -0.894207
              }
            }
          }
        }
      }
    }
  }
}
MOTION
Frames: 9
Frame Time: 0.00208333
53.2192 95.7615 30.1601 -0.650205 0.072511 6.21632 0.282115 -1.76801 0.00890565 0.56411 0.466712 -0.0103896 0.564505 2.11175 -0.0198418 1.0334 22.1873 -2.01451 -0.082054 -6.7213 -1.66856 70.9523 1.84506 -0.560493 105.509 19.4423 17.7781 -7.15625e-015 3.18055e-015 -1.59028e-015 4.96755 0.0459999 -0.291136 -3.22751e-006 1.94008e-006 -3.02418 8.02956 -4.95142 0.697643 -70.0693 1.92138 0.407632 -109.069 19.1054 -12.9597 -1.11319e-014 -1.27222e-014 -6.36111e-015 -6.46282 1.10772 -0.0495019 5.70895e-006 2.72201e-006 2.99999 -8.02932 -4.95144 -0.697653 178.11 1.93827 -3.83632 180 7.01549e-015 178.933 178.108 6.64476 179.519 3.76447e-006 -6.85207e-006 0.113039 -19.4035 68.7411 20.1698 8.1365 25.2327 -3.48774 -175.599 4.10832 2.0445 4.54188e-006 -4.6773e-006 -1.03474 -1.23121 -7.85601 0.194362 5.29274e-006 -7.83036e-006 -0.108747 18.9291 68.6558 -20.1102 -8.13649 25.2327 3.48774 
53.2194 95.7602 30.1331 -0.646852 0.117141 6.23094 0.279405 -1.76595 0.00648017 0.558817 0.470819 -0.0153075 0.559266 2.11586 -0.0246752 1.05763 22.1609 -2.02363 -0.0920082 -6.72049 -1.67127 70.9728 1.84748 -0.562035 105.496 19.482 17.7579 -8.34896e-015 0 -6.36111e-015 4.9745 0.0459995 -0.291232 -3.22751e-006 1.94008e-006 -3.02418 8.02956 -4.95142 0.697643 -70.0442 1.91922 0.405377 -109.103 19.149 -12.9369 3.53113e-031 3.18055e-015 -6.36111e-015 -6.44292 1.11815 -0.0495841 5.70895e-006 2.72201e-006 2.99999 -8.02932 -4.95144 -0.697653 178.097 2.01998 -3.83292 180 7.01549e-015 178.933 178.105 6.67152 179.52 3.76447e-006 -6.85207e-006 0.112993 -19.4021 68.7396 20.1686 8.1365 25.2327 -3.48774 -175.619 4.17946 2.06741 4.54188e-006 -4.6773e-006 -1.03365 -1.22055 -7.85414 0.195735 5.29274e-006 -7.83036e-006 -0.108061 18.9148 68.6405 -20.0962 -8.13649 25.2327 3.48774 
53.2218 95.7696 30.0909 -0.643554 0.161589 6.24575 0.276652 -1.76403 0.00399304 0.55344 0.474644 -0.0203903 0.553947 2.11968 -0.0296723 1.08284 22.1352 -2.03292 -0.102842 -6.72002 -1.67395 70.9947 1.8502 -0.563614 105.482 19.5216 17.7387 -1.59028e-014 6.36111e-015 -3.18055e-015 4.98117 0.045999 -0.291373 -3.22751e-006 1.94008e-006 -3.02419 8.02956 -4.95142 0.697643 -70.0182 1.91708 0.403002 -109.138 19.1917 -12.914 -1.03368e-014 -6.36111e-015 -6.36111e-015 -6.42325 1.1284 -0.0496651 5.70895e-006 2.72201e-006 2.99999 -8.02932 -4.95144 -0.697653 178.085 2.10098 -3.82961 180 7.01549e-015 178.934 178.102 6.69784 179.52 3.76447e-006 -6.85207e-006 0.112925 -19.4008 68.738 20.1673 8.1365 25.2327 -3.48774 -175.638 4.24982 2.09059 4.54188e-006 -4.6773e-006 -1.03258 -1.20959 -7.85159 0.197154 5.29274e-006 -7.83036e-006 -0.107362 18.9005 68.6249 -20.082 -8.13649 25.2327 3.48774 
53.2197 95.7638 30.0611 -0.640302 0.205908 6.26071 0.273869 -1.76221 0.00146277 0.548006 0.478272 -0.0255885 0.54857 2.12331 -0.034784 1.10875 22.1098 -2.04235 -0.114292 -6.71979 -1.67661 71.0175 1.85313 -0.565219 105.466 19.5611 17.7202 -9.54166e-015 9.54166e-015 -1.59028e-015 4.98762 0.0459986 -0.291545 -3.22751e-006 1.94008e-006 -3.0242 8.02956 -4.95142 0.697643 -69.9918 1.91497 0.400544 -109.173 19.2339 -12.8911 -3.18055e-015 0 -6.36111e-015 -6.40374 1.1385 -0.0497452 5.70895e-006 2.72201e-006 2.99999 -8.02932 -4.95144 -0.697653 178.073 2.18147 -3.82636 180 7.0155e-015 178.934 178.099 6.72384 179.521 3.76447e-006 -6.85207e-006 0.112841 -19.3994 68.7364 20.166 8.1365 25.2327 -3.48774 -175.658 4.31966 2.11397 4.54188e-006 -4.6773e-006 -1.03153 -1.1984 -7.84856 0.198604 5.29274e-006 -7.83036e-006 -0.106655 18.8861 68.6091 -20.0676 -8.13649 25.2327 3.48774 
53.2186 95.7633 30.0178 -0.637085 0.250152 6.27574 0.271069 -1.76045 -0.00109216 0.542539 0.481788 -0.0308528 0.543161 2.12683 -0.0399612 1.13505 22.0846 -2.05184 -0.126094 -6.7197 -1.67927 71.0409 1.85618 -0.56684 105.451 19.6005 17.7022 -2.46493e-014 3.18055e-015 -9.54166e-015 4.99396 0.0459981 -0.291734 -3.22751e-006 1.94008e-006 -3.02421 8.02956 -4.95142 0.697643 -69.965 1.91286 0.398038 -109.208 19.2757 -12.8682 -3.97569e-015 -6.36111e-015 -0 -6.38432 1.14853 -0.0498248 5.70895e-006 2.72201e-006 2.99999 -8.02932 -4.95144 -0.697653 178.06 2.26168 -3.82314 180 7.0155e-015 178.935 178.097 6.74966 179.522 3.76447e-006 -6.85207e-006 0.112748 -19.3979 68.7347 20.1647 8.1365 25.2327 -3.48774 -175.678 4.38919 2.13746 4.54188e-006 -4.6773e-006 -1.03049 -1.18709 -7.84525 0.200072 5.29274e-006 -7.83036e-006 -0.105942 18.8716 68.5932 -20.0532 -8.13649 25.2327 3.48774 
53.2202 95.7628 29.9855 -0.633894 0.294376 6.29079 0.268265 -1.7587 -0.00365325 0.537064 0.485275 -0.0361335 0.537745 2.13032 -0.0451547 1.16144 22.0595 -2.06134 -0.137984 -6.71965 -1.68192 71.0644 1.85926 -0.568464 105.434 19.64 17.6842 -7.55382e-015 6.36111e-015 -1.59028e-015 5.00028 0.0459977 -0.291929 -3.22751e-006 1.94008e-006 -3.02421 8.02956 -4.95142 0.697643 -69.9381 1.91076 0.395521 -109.244 19.3174 -12.8453 -7.15625e-015 -3.18055e-015 -3.18055e-015 -6.36493 1.15853 -0.0499042 5.70895e-006 2.72201e-006 2.99999 -8.02932 -4.95144 -0.697653 178.048 2.34181 -3.81994 180 7.0155e-015 178.935 178.094 6.77545 179.522 3.76447e-006 -6.85207e-006 0.112653 -19.3965 68.7331 20.1633 8.1365 25.2327 -3.48774 -175.698 4.45864 2.16099 4.54188e-006 -4.6773e-006 -1.02946 -1.17575 -7.84187 0.201545 5.29274e-006 -7.83036e-006 -0.105227 18.8572 68.5773 -20.0388 -8.13649 25.2327 3.48774 
53.2251 95.7642 29.9491 -0.630721 0.338634 6.30581 0.26547 -1.75693 -0.006202 0.531607 0.488818 -0.0413813 0.532346 2.13386 -0.0503156 1.18763 22.0343 -2.07081 -0.149698 -6.71952 -1.68457 71.0876 1.86227 -0.57008 105.419 19.6794 17.6661 6.75868e-015 0 -0 5.00665 0.0459972 -0.292114 -3.22751e-006 1.94008e-006 -3.02422 8.02956 -4.95142 0.697643 -69.9114 1.90865 0.393027 -109.279 19.3593 -12.8224 1.03368e-014 0 -3.18055e-015 -6.34548 1.16858 -0.049984 5.70895e-006 2.72201e-006 2.99999 -8.02932 -4.95144 -0.697653 178.035 2.42209 -3.81673 180 7.0155e-015 178.936 178.091 6.80131 179.523 3.76447e-006 -6.85207e-006 0.112563 -19.3951 68.7314 20.162 8.1365 25.2327 -3.48774 -175.718 4.52824 2.18447 4.54188e-006 -4.6773e-006 -1.02841 -1.16447 -7.83863 0.203008 5.29274e-006 -7.83036e-006 -0.104515 18.8428 68.5614 -20.0244 -8.13649 25.2327 3.48774 
53.2215 95.7621 29.9129 -0.627554 0.382979 6.32074 0.262697 -1.75508 -0.00871992 0.526192 0.492502 -0.0465466 0.526988 2.13755 -0.0553947 1.2133 22.0088 -2.08019 -0.160972 -6.71923 -1.68724 71.1102 1.86514 -0.571678 105.404 19.719 17.6474 -5.96354e-015 -3.18055e-015 -4.77083e-015 5.01316 0.0459968 -0.292277 -3.22751e-006 1.94008e-006 -3.02423 8.02956 -4.95142 0.697643 -69.8851 1.90653 0.390592 -109.315 19.4017 -12.7995 -4.77083e-015 9.54166e-015 -3.18055e-015 -6.32593 1.17872 -0.0500643 5.70895e-006 2.72201e-006 2.99999 -8.02932 -4.95144 -0.697653 178.023 2.50273 -3.81349 180 7.0155e-015 178.936 178.088 6.82742 179.524 3.76447e-006 -6.85207e-006 0.112484 -19.3937 68.7298 20.1607 8.1365 25.2327 -3.48774 -175.738 4.59821 2.20782 4.54188e-006 -4.6773e-006 -1.02736 -1.15335 -7.83574 0.204449 5.29274e-006 -7.83035e-006 -0.10381 18.8284 68.5457 -20.0102 -8.13649 25.2327 3.48774 
53.2222 95.7686 29.8628 -0.624385 0.427465 6.33552 0.259958 -1.75312 -0.0111885 0.520845 0.496412 -0.0515799 0.521697 2.14146 -0.0603428 1.23816 21.9828 -2.08941 -0.171541 -6.71866 -1.68993 71.1317 1.86777 -0.573247 105.39 19.7586 17.6279 -4.77083e-015 6.36111e-015 -6.36111e-015 5.01991 0.0459963 -0.292404 -3.22751e-006 1.94008e-006 -3.02424 8.02956 -4.95142 0.697643 -69.8594 1.90439 0.388254 -109.35 19.4447 -12.7766 2.94201e-014 9.54166e-015 9.54166e-015 -6.30619 1.18902 -0.0501457 5.70895e-006 2.72201e-006 2.99999 -8.02932 -4.95144 -0.697653 178.011 2.58395 -3.8102 180 7.0155e-015 178.937 178.085 6.85386 179.525 3.76447e-006 -6.85207e-006 0.112422 -19.3923 68.7283 20.1595 8.1365 25.2327 -3.48774 -175.758 4.66879 2.23096 4.54188e-006 -4.6773e-006 -1.02628 -1.14248 -7.8334 0.205854 5.29274e-006 -7.83035e-006 -0.103116 18.8143 68.5302 -19.9962 -8.13649 25.2327 3.48774 
